# xmcd
#
# Track frame offsets:
#	150
#	18278
#	34718
#	47628
#	63543
#	79361
#	92263
#	106417
#	124951
#	137226
#	147213
#	164653
#	178555
#	193043
#	211969
#	225146
#	242138
#	256313
#
# Disc length: 3742 seconds
#
# Revision: 4
# Processed by: cddbd v1.5.2PL0 Copyright (c) Steve Scherf et al.
# Submitted via: EasyCDDAExtractor 10.0.2.1
#
DISCID=f60e9c12
DTITLE=Various Artist - Complete Country  [Disc 5]
DYEAR=2006
DGENRE=Country
TTITLE0=James Blundell and James Reyne - Way Out West
TTITLE1=Clint Beattie - I Believe (Wheel Does Turn)
TTITLE2=Dr. Hook - Sharing the Night Together
TTITLE3=Band - The Night They Drove old Dixie Down
TTITLE4=Nitty Gritty Dirt Band - An American Dream
TTITLE5=Michael Martin Murphey - What's Forever For
TTITLE6=Suzy Boggass - Drive South
TTITLE7=Juice Newton - The Sweetest Thing (I've Ever Known)
TTITLE8=Tanya Tucker - Strong Enough to Bend
TTITLE9=Dead Ringer Band - Living in the Circle
TTITLE10=Steve Wariner - Faith in you
TTITLE11=Gaitlin Bros. - Boogie and Beethoven
TTITLE12=Deana Carter - Did I Shave My Legs for This
TTITLE13=Dan Seals - Addicted
TTITLE14=Billy Dean - Mountain Moved
TTITLE15=James Blundell - This Road
TTITLE16=Dolly Parton and Asleep @ Wheel - Billie Dale
TTITLE17=Michael Martin Murphey - Geronimo's Cadillac
EXTD=
EXTT0=
EXTT1=
EXTT2=
EXTT3=
EXTT4=
EXTT5=
EXTT6=
EXTT7=
EXTT8=
EXTT9=
EXTT10=
EXTT11=
EXTT12=
EXTT13=
EXTT14=
EXTT15=
EXTT16=
EXTT17=
PLAYORDER=
